<svg width="380" height="76" viewBox="0 0 380 76" fill="none" xmlns="http://www.w3.org/2000/svg">
<path d="M35.3724 43.3735H6.31641V61.2703C6.31641 69.2939 12.8208 75.7983 20.8444 75.7983C28.868 75.7983 35.3724 69.2939 35.3724 61.2703V43.3735Z" fill="#F1F2F4"/>
<path d="M75.7982 43.3735H46.7422V61.2703C46.7422 69.2939 53.2466 75.7983 61.2702 75.7983C69.2938 75.7983 75.7982 69.2939 75.7982 61.2703V43.3735Z" fill="#F1F2F4"/>
<path d="M39.1627 22.9278L59.7084 43.4735L72.3634 30.8185C78.0369 25.145 78.0369 15.9464 72.3634 10.2728C66.6898 4.59929 57.4912 4.5993 51.8177 10.2728L39.1627 22.9278Z" fill="#F1F2F4"/>
<path d="M22.928 43.4735L43.4737 22.9278L30.8188 10.2729C25.1452 4.59931 15.9466 4.59931 10.273 10.2729C4.59951 15.9464 4.59951 25.145 10.2731 30.8186L22.928 43.4735Z" fill="#F1F2F4"/>
<path d="M106.259 55.3991L112.923 20.9714H117.055L125.883 44.1609L134.662 20.9714H138.793L145.482 55.3991H140.269L135.818 32.3571L127.58 54.0958H124.137L115.923 32.3571L111.472 55.3991H106.259ZM158.842 56.0385C156.58 56.0385 154.514 55.4565 152.645 54.2925C150.793 53.1285 149.309 51.5711 148.194 49.6202C147.096 47.6529 146.546 45.4807 146.546 43.1035C146.546 41.3002 146.866 39.6198 147.505 38.0623C148.145 36.4885 149.022 35.1114 150.137 33.931C151.268 32.7342 152.579 31.7997 154.071 31.1276C155.563 30.4554 157.153 30.1193 158.842 30.1193C160.727 30.1193 162.457 30.5128 164.031 31.2997C165.605 32.0702 166.949 33.1441 168.064 34.5212C169.179 35.8819 169.998 37.4557 170.523 39.2427C171.047 41.0133 171.203 42.8986 170.99 44.8987H152.03C152.243 46.0299 152.653 47.0545 153.26 47.9726C153.883 48.8743 154.67 49.5874 155.621 50.112C156.588 50.6366 157.662 50.9071 158.842 50.9235C160.088 50.9235 161.219 50.612 162.236 49.9891C163.268 49.3661 164.113 48.5054 164.769 47.407L169.957 48.612C168.974 50.7924 167.49 52.5793 165.506 53.9728C163.523 55.35 161.301 56.0385 158.842 56.0385ZM151.858 40.9887H165.826C165.662 39.8083 165.244 38.7427 164.572 37.7918C163.916 36.8246 163.088 36.0622 162.088 35.5048C161.104 34.931 160.022 34.6441 158.842 34.6441C157.678 34.6441 156.596 34.9228 155.596 35.4802C154.612 36.0376 153.793 36.8 153.137 37.7672C152.498 38.7181 152.071 39.7919 151.858 40.9887ZM193.188 18.5123H198.303V55.3991H193.188V51.7842C192.384 53.063 191.335 54.0958 190.04 54.8827C188.745 55.6532 187.228 56.0385 185.491 56.0385C183.704 56.0385 182.031 55.7024 180.474 55.0303C178.916 54.3581 177.539 53.4318 176.343 52.2515C175.162 51.0547 174.236 49.6776 173.564 48.1201C172.892 46.5627 172.556 44.8905 172.556 43.1035C172.556 41.3166 172.892 39.6443 173.564 38.0869C174.236 36.5131 175.162 35.136 176.343 33.9556C177.539 32.7588 178.916 31.8243 180.474 31.1522C182.031 30.48 183.704 30.1439 185.491 30.1439C187.228 30.1439 188.745 30.5374 190.04 31.3243C191.335 32.0948 192.384 33.1113 193.188 34.3736V18.5123ZM185.54 51.0957C186.982 51.0957 188.245 50.7432 189.327 50.0382C190.409 49.3169 191.245 48.3496 191.835 47.1365C192.442 45.9233 192.745 44.579 192.745 43.1035C192.745 41.6116 192.442 40.2591 191.835 39.046C191.228 37.8328 190.384 36.8737 189.302 36.1688C188.237 35.4474 186.982 35.0868 185.54 35.0868C184.113 35.0868 182.81 35.4474 181.63 36.1688C180.466 36.8901 179.531 37.8574 178.826 39.0706C178.138 40.2837 177.793 41.628 177.793 43.1035C177.793 44.5954 178.146 45.9479 178.851 47.1611C179.572 48.3578 180.515 49.3169 181.679 50.0382C182.859 50.7432 184.146 51.0957 185.54 51.0957ZM203.21 30.8079H208.325V55.3991H203.21V30.8079ZM205.817 27.2422C205.03 27.2422 204.374 26.9881 203.849 26.4798C203.325 25.9716 203.062 25.3322 203.062 24.5617C203.062 23.8076 203.325 23.1764 203.849 22.6682C204.374 22.1436 205.022 21.8813 205.792 21.8813C206.546 21.8813 207.186 22.1436 207.71 22.6682C208.235 23.1764 208.497 23.8076 208.497 24.5617C208.497 25.3322 208.235 25.9716 207.71 26.4798C207.202 26.9881 206.571 27.2422 205.817 27.2422ZM228.851 48.4152L233.425 50.8989C232.31 52.4564 230.892 53.7023 229.171 54.6368C227.466 55.5713 225.613 56.0385 223.613 56.0385C221.351 56.0385 219.285 55.4565 217.416 54.2925C215.564 53.1285 214.08 51.5711 212.965 49.6202C211.867 47.6529 211.317 45.4807 211.317 43.1035C211.317 41.3002 211.637 39.6198 212.277 38.0623C212.916 36.4885 213.793 35.1114 214.908 33.931C216.039 32.7342 217.351 31.7997 218.842 31.1276C220.334 30.4554 221.924 30.1193 223.613 30.1193C225.613 30.1193 227.466 30.5866 229.171 31.521C230.892 32.4555 232.31 33.7097 233.425 35.2835L228.851 37.7672C228.162 36.9475 227.359 36.3245 226.441 35.8983C225.523 35.4556 224.58 35.2343 223.613 35.2343C222.269 35.2343 221.047 35.6032 219.949 36.3409C218.867 37.0623 218.006 38.0213 217.367 39.2181C216.744 40.3985 216.432 41.6936 216.432 43.1035C216.432 44.497 216.752 45.7922 217.391 46.9889C218.031 48.1693 218.892 49.1202 219.974 49.8415C221.072 50.5629 222.285 50.9235 223.613 50.9235C224.63 50.9235 225.597 50.694 226.515 50.235C227.433 49.7759 228.212 49.1694 228.851 48.4152ZM255.388 30.8079H260.503V55.3991H255.364L255.167 51.8334C254.446 53.0958 253.47 54.1122 252.241 54.8827C251.011 55.6532 249.56 56.0385 247.888 56.0385C246.085 56.0385 244.388 55.7024 242.798 55.0303C241.207 54.3417 239.806 53.3909 238.593 52.1777C237.396 50.9645 236.461 49.571 235.789 47.9972C235.117 46.4069 234.781 44.7019 234.781 42.8822C234.781 41.128 235.109 39.4804 235.765 37.9394C236.42 36.3819 237.33 35.0212 238.494 33.8572C239.658 32.6932 241.003 31.7833 242.527 31.1276C244.068 30.4554 245.716 30.1193 247.47 30.1193C249.257 30.1193 250.831 30.5292 252.192 31.3489C253.569 32.1522 254.708 33.1851 255.61 34.4474L255.388 30.8079ZM247.765 51.0957C249.208 51.0957 250.47 50.7432 251.552 50.0382C252.634 49.3169 253.47 48.3496 254.06 47.1365C254.667 45.9233 254.97 44.579 254.97 43.1035C254.97 41.6116 254.667 40.2591 254.06 39.046C253.454 37.8328 252.61 36.8737 251.528 36.1688C250.462 35.4474 249.208 35.0868 247.765 35.0868C246.339 35.0868 245.036 35.4474 243.855 36.1688C242.675 36.8901 241.74 37.8574 241.052 39.0706C240.363 40.2837 240.019 41.628 240.019 43.1035C240.019 44.5954 240.371 45.9479 241.076 47.1611C241.798 48.3578 242.74 49.3169 243.904 50.0382C245.085 50.7432 246.372 51.0957 247.765 51.0957ZM280.362 56.0385C278.034 56.0385 275.845 55.5795 273.796 54.6614C271.747 53.7269 269.943 52.4482 268.386 50.8252C266.845 49.1858 265.632 47.284 264.747 45.12C263.878 42.956 263.443 40.6444 263.443 38.1853C263.443 35.7261 263.878 33.4146 264.747 31.2505C265.632 29.0865 266.845 27.193 268.386 25.57C269.943 23.9305 271.747 22.6518 273.796 21.7337C275.845 20.7993 278.034 20.332 280.362 20.332C283.149 20.332 285.715 20.9796 288.059 22.2747C290.403 23.5699 292.346 25.2913 293.887 27.4389L291.551 28.7176C290.256 26.9635 288.608 25.57 286.608 24.5371C284.624 23.5043 282.542 22.9879 280.362 22.9879C278.362 22.9879 276.501 23.3895 274.78 24.1929C273.058 24.9962 271.542 26.1028 270.23 27.5127C268.935 28.9062 267.919 30.521 267.181 32.3571C266.46 34.1933 266.099 36.136 266.099 38.1853C266.099 40.2837 266.468 42.251 267.206 44.0872C267.943 45.9069 268.968 47.5217 270.28 48.9316C271.591 50.3251 273.108 51.4154 274.829 52.2023C276.55 52.9892 278.395 53.3827 280.362 53.3827C282.641 53.3827 284.756 52.858 286.707 51.8088C288.674 50.7596 290.289 49.3907 291.551 47.7021L293.887 48.9562C292.346 51.1039 290.403 52.8253 288.059 54.1204C285.715 55.3991 283.149 56.0385 280.362 56.0385ZM307.5 56.0385C305.238 56.0385 303.172 55.4565 301.303 54.2925C299.45 53.1285 297.967 51.5711 296.852 49.6202C295.754 47.6529 295.204 45.4807 295.204 43.1035C295.204 41.3002 295.524 39.6198 296.163 38.0623C296.803 36.4885 297.68 35.1114 298.795 33.931C299.926 32.7342 301.237 31.7997 302.729 31.1276C304.221 30.4554 305.811 30.1193 307.5 30.1193C309.287 30.1193 310.935 30.4718 312.443 31.1768C313.967 31.8653 315.279 32.8408 316.377 34.1031C317.476 35.3655 318.32 36.8573 318.91 38.5787C319.5 40.2837 319.771 42.1527 319.722 44.1855H297.983C298.163 45.9397 298.688 47.5135 299.557 48.9071C300.442 50.2842 301.573 51.3744 302.951 52.1777C304.328 52.9646 305.844 53.3663 307.5 53.3827C309.32 53.3827 310.959 52.9072 312.418 51.9564C313.877 50.9891 315.049 49.6694 315.935 47.9972L318.615 48.612C317.632 50.7924 316.148 52.5793 314.164 53.9728C312.18 55.35 309.959 56.0385 307.5 56.0385ZM297.909 41.9231H317.041C316.943 40.2345 316.451 38.6853 315.566 37.2754C314.697 35.8491 313.558 34.7097 312.148 33.8572C310.738 33.0047 309.189 32.5785 307.5 32.5785C305.811 32.5785 304.27 32.9965 302.877 33.8326C301.483 34.6687 300.344 35.7999 299.459 37.2262C298.59 38.6361 298.073 40.2018 297.909 41.9231ZM323.025 55.3991V30.8079H325.681V34.5704C326.566 33.2096 327.738 32.1276 329.197 31.3243C330.657 30.521 332.247 30.1193 333.968 30.1193C334.935 30.1193 335.862 30.2423 336.747 30.4882L335.64 33.0949C334.935 32.8982 334.247 32.7998 333.575 32.7998C332.132 32.7998 330.812 33.1523 329.616 33.8572C328.419 34.5622 327.46 35.513 326.738 36.7098C326.033 37.9066 325.681 39.2345 325.681 40.6936V55.3991H323.025ZM351.557 33.4638H345.336L345.311 55.3991H342.655L342.68 33.4638H337.983V30.8079H342.68L342.655 23.0862H345.311L345.336 30.8079H351.557V33.4638ZM365.067 56.0385C362.804 56.0385 360.738 55.4565 358.87 54.2925C357.017 53.1285 355.533 51.5711 354.418 49.6202C353.32 47.6529 352.771 45.4807 352.771 43.1035C352.771 41.3002 353.091 39.6198 353.73 38.0623C354.369 36.4885 355.246 35.1114 356.361 33.931C357.492 32.7342 358.804 31.7997 360.296 31.1276C361.788 30.4554 363.378 30.1193 365.067 30.1193C367.329 30.1193 369.386 30.7013 371.239 31.8653C373.108 33.0293 374.592 34.5949 375.69 36.5622C376.805 38.5295 377.362 40.71 377.362 43.1035C377.362 44.8905 377.042 46.5627 376.403 48.1201C375.764 49.6776 374.878 51.0547 373.747 52.2515C372.632 53.4318 371.329 54.3581 369.837 55.0303C368.362 55.7024 366.771 56.0385 365.067 56.0385ZM365.067 53.3827C366.886 53.3827 368.517 52.9072 369.96 51.9564C371.419 51.0055 372.575 49.7514 373.428 48.1939C374.28 46.6365 374.706 44.9397 374.706 43.1035C374.706 41.251 374.28 39.5378 373.428 37.9639C372.575 36.3901 371.419 35.136 369.96 34.2015C368.501 33.2506 366.87 32.7752 365.067 32.7752C363.247 32.7752 361.607 33.2506 360.148 34.2015C358.689 35.1523 357.533 36.4147 356.681 37.9885C355.845 39.546 355.427 41.251 355.427 43.1035C355.427 45.0216 355.861 46.7594 356.73 48.3169C357.615 49.8579 358.788 51.0875 360.247 52.0055C361.706 52.9236 363.312 53.3827 365.067 53.3827Z" fill="white"/>
</svg>
