<svg width="344" height="316" viewBox="0 0 344 316" fill="none" xmlns="http://www.w3.org/2000/svg">
<path d="M147.249 180.557H26.2935V255.058C26.2935 288.459 53.3703 315.536 86.7712 315.536C120.172 315.536 147.249 288.459 147.249 255.058V180.557Z" fill="#103B40"/>
<path d="M315.535 180.557H194.579V255.058C194.579 288.459 221.656 315.536 255.057 315.536C288.458 315.536 315.535 288.459 315.535 255.058V180.557Z" fill="#103B40"/>
<path d="M163.027 95.4447L248.555 180.973L301.236 128.293C324.854 104.675 324.854 66.3822 301.236 42.7642C277.618 19.1462 239.325 19.1462 215.707 42.7642L163.027 95.4447Z" fill="#007481"/>
<path d="M95.4446 180.973L180.973 95.4449L128.292 42.7644C104.674 19.1464 66.3821 19.1464 42.7641 42.7644C19.1461 66.3824 19.1461 104.675 42.7641 128.293L95.4446 180.973Z" fill="#007481"/>
</svg>
